<svg width="18" height="18" viewBox="0 0 18 18" fill="none" xmlns="http://www.w3.org/2000/svg">
<path d="M11.7 17.5583H11.5916C7.89164 17.5583 6.1083 16.1 5.79997 12.8333C5.76664 12.4917 6.01664 12.1833 6.36664 12.15C6.69997 12.1166 7.01664 12.375 7.04997 12.7167C7.29164 15.3333 8.52497 16.3083 11.6 16.3083H11.7083C15.1 16.3083 16.3 15.1083 16.3 11.7167V6.28332C16.3 2.89165 15.1 1.69165 11.7083 1.69165H11.6C8.5083 1.69165 7.27497 2.68332 7.04997 5.34998C7.0083 5.69165 6.71664 5.94998 6.36664 5.91665C6.28451 5.91023 6.20445 5.88766 6.13106 5.85024C6.05767 5.81281 5.9924 5.76126 5.93897 5.69855C5.88555 5.63584 5.84504 5.5632 5.81975 5.48479C5.79447 5.40638 5.78492 5.32376 5.79164 5.24165C6.07497 1.92498 7.86664 0.44165 11.5916 0.44165H11.7C15.7916 0.44165 17.5416 2.19165 17.5416 6.28332V11.7167C17.5416 15.8083 15.7916 17.5583 11.7 17.5583Z" fill="white"/>
<path d="M11.4999 9.625H2.0166C1.67493 9.625 1.3916 9.34167 1.3916 9C1.3916 8.65833 1.67493 8.375 2.0166 8.375H11.4999C11.8416 8.375 12.1249 8.65833 12.1249 9C12.1249 9.34167 11.8416 9.625 11.4999 9.625Z" fill="white"/>
<path d="M3.87496 12.4167C3.71662 12.4167 3.55829 12.3584 3.43329 12.2334L0.641623 9.4417C0.525389 9.32408 0.460205 9.16539 0.460205 9.00003C0.460205 8.83467 0.525389 8.67598 0.641623 8.55837L3.43329 5.7667C3.67496 5.52503 4.07496 5.52503 4.31662 5.7667C4.55829 6.00837 4.55829 6.40837 4.31662 6.65003L1.96662 9.00003L4.31662 11.35C4.55829 11.5917 4.55829 11.9917 4.31662 12.2334C4.19996 12.3584 4.03329 12.4167 3.87496 12.4167Z" fill="white"/>
</svg>
