<svg width="20" height="20" viewBox="0 0 20 20" fill="none" xmlns="http://www.w3.org/2000/svg">
<path d="M6.66675 18.6001C6.43341 18.6001 6.19175 18.5418 5.97508 18.4251C5.50008 18.1751 5.20841 17.6751 5.20841 17.1418V15.9584C2.69175 15.7001 1.04175 13.8501 1.04175 11.2001V6.20011C1.04175 3.33345 2.96675 1.40845 5.83341 1.40845H14.1667C17.0334 1.40845 18.9584 3.33345 18.9584 6.20011V11.2001C18.9584 14.0668 17.0334 15.9918 14.1667 15.9918H11.0251L7.47508 18.3584C7.23341 18.5168 6.95008 18.6001 6.66675 18.6001ZM5.83341 2.65011C3.68341 2.65011 2.29175 4.04178 2.29175 6.19178V11.1918C2.29175 13.3418 3.68341 14.7334 5.83341 14.7334C6.17508 14.7334 6.45841 15.0168 6.45841 15.3584V17.1334C6.45841 17.2418 6.52508 17.2918 6.56675 17.3168C6.60841 17.3418 6.69175 17.3668 6.78341 17.3084L10.4917 14.8418C10.5917 14.7751 10.7167 14.7334 10.8417 14.7334H14.1751C16.3251 14.7334 17.7167 13.3418 17.7167 11.1918V6.19178C17.7167 4.04178 16.3251 2.65011 14.1751 2.65011H5.83341Z" fill="white"/>
<path d="M10 10.0918C9.65837 10.0918 9.37503 9.80846 9.37503 9.4668V9.2918C9.37503 8.32513 10.0834 7.85013 10.35 7.6668C10.6584 7.45846 10.7584 7.3168 10.7584 7.10013C10.7584 6.68346 10.4167 6.3418 10 6.3418C9.58337 6.3418 9.2417 6.68346 9.2417 7.10013C9.2417 7.4418 8.95837 7.72513 8.6167 7.72513C8.27503 7.72513 7.9917 7.4418 7.9917 7.10013C7.9917 5.9918 8.8917 5.0918 10 5.0918C11.1084 5.0918 12.0084 5.9918 12.0084 7.10013C12.0084 8.05013 11.3084 8.52513 11.05 8.70013C10.725 8.9168 10.625 9.05846 10.625 9.2918V9.4668C10.625 9.8168 10.3417 10.0918 10 10.0918Z" fill="white"/>
<path d="M10 12.1668C9.91803 12.1669 9.83685 12.1509 9.76108 12.1196C9.68531 12.0883 9.61644 12.0424 9.5584 11.9846C9.50037 11.9267 9.4543 11.8579 9.42283 11.7823C9.39136 11.7066 9.37511 11.6254 9.375 11.5435C9.37489 11.4615 9.39093 11.3803 9.42219 11.3045C9.45346 11.2288 9.49934 11.1599 9.55723 11.1019C9.61511 11.0438 9.68385 10.9978 9.75954 10.9663C9.83522 10.9348 9.91637 10.9186 9.99833 10.9185C10.1639 10.9182 10.3227 10.9838 10.4399 11.1007C10.5571 11.2176 10.6231 11.3763 10.6233 11.5418C10.6236 11.7073 10.558 11.8662 10.4411 11.9834C10.3242 12.1006 10.1655 12.1666 10 12.1668Z" fill="white"/>
</svg>
