<svg width="20" height="20" viewBox="0 0 20 20" fill="none" xmlns="http://www.w3.org/2000/svg">
<path d="M17.183 10.8916C16.8664 10.8916 16.5997 10.65 16.558 10.3333C16.4576 9.39973 16.1569 8.49881 15.6766 7.69202C15.1963 6.88523 14.5475 6.19154 13.7747 5.6583C13.6396 5.56374 13.5472 5.41972 13.5175 5.25748C13.4879 5.09524 13.5234 4.92786 13.6164 4.79163C13.8164 4.5083 14.208 4.44163 14.483 4.6333C15.4019 5.26912 16.1731 6.09544 16.744 7.05603C17.3148 8.01662 17.6721 9.08892 17.7914 10.2C17.8247 10.5416 17.583 10.85 17.233 10.8916H17.183Z" fill="white"/>
<path d="M2.90841 10.9332H2.84174C2.67703 10.9131 2.52662 10.8296 2.4224 10.7005C2.31817 10.5714 2.26832 10.4068 2.28341 10.2415C2.50841 7.99985 3.70007 5.97485 5.54174 4.66651C5.60904 4.61891 5.68506 4.58503 5.76546 4.5668C5.84586 4.54858 5.92906 4.54637 6.01031 4.5603C6.09156 4.57422 6.16927 4.60402 6.23901 4.64798C6.30874 4.69194 6.36914 4.74921 6.41674 4.81651C6.46434 4.88382 6.49823 4.95984 6.51645 5.04023C6.53468 5.12063 6.53689 5.20383 6.52296 5.28508C6.50903 5.36633 6.47923 5.44404 6.43527 5.51378C6.39131 5.58352 6.33404 5.64391 6.26674 5.69151C5.50112 6.23038 4.86014 6.92737 4.38714 7.73534C3.91414 8.54332 3.62016 9.44344 3.52507 10.3748C3.51051 10.5281 3.43917 10.6703 3.32506 10.7737C3.21096 10.877 3.06234 10.9339 2.90841 10.9332Z" fill="white"/>
<path d="M10.0497 18.8416C8.8164 18.8416 7.6414 18.5583 6.5414 18.0083C6.46798 17.9712 6.4026 17.92 6.34902 17.8576C6.29543 17.7952 6.2547 17.7228 6.22915 17.6446C6.2036 17.5664 6.19374 17.4839 6.20013 17.4019C6.20653 17.3199 6.22905 17.2399 6.2664 17.1666C6.3035 17.0932 6.35472 17.0278 6.41714 16.9743C6.47956 16.9207 6.55194 16.8799 6.63014 16.8544C6.70833 16.8288 6.7908 16.819 6.87282 16.8254C6.95483 16.8318 7.03478 16.8543 7.10807 16.8916C8.00472 17.3394 8.99174 17.5767 9.99395 17.5854C10.9962 17.594 11.9871 17.3739 12.8914 16.9416C13.1997 16.7916 13.5747 16.925 13.7247 17.2333C13.8747 17.5416 13.7414 17.9166 13.4331 18.0666C12.3664 18.5833 11.2331 18.8416 10.0497 18.8416Z" fill="white"/>
<path d="M10.0501 7.03329C9.65969 7.03997 9.27186 6.96886 8.90921 6.8241C8.54656 6.67934 8.21637 6.46384 7.93787 6.19014C7.65937 5.91645 7.43815 5.59005 7.28711 5.22998C7.13606 4.8699 7.05822 4.48336 7.05811 4.09289C7.05799 3.70242 7.13562 3.31583 7.28646 2.95567C7.43731 2.59552 7.65834 2.26899 7.93668 1.99514C8.21502 1.72129 8.5451 1.50559 8.90766 1.36063C9.27023 1.21566 9.65802 1.14433 10.0484 1.15079C10.8199 1.16367 11.5555 1.47916 12.0966 2.02926C12.6376 2.57936 12.9409 3.32003 12.941 4.09163C12.9411 4.86324 12.6381 5.60399 12.0971 6.15425C11.5562 6.7045 10.8208 7.0202 10.0493 7.03329H10.0501ZM10.0501 2.40829C9.11678 2.40829 8.35844 3.16663 8.35844 4.09996C8.35844 5.03329 9.11678 5.79163 10.0501 5.79163C10.9834 5.79163 11.7418 5.03329 11.7418 4.09996C11.7418 3.16663 10.9751 2.40829 10.0501 2.40829Z" fill="white"/>
<path d="M4.02487 17.225C3.63445 17.2315 3.24663 17.1603 2.88403 17.0154C2.52142 16.8706 2.19128 16.655 1.91286 16.3812C1.63445 16.1074 1.41332 15.781 1.26237 15.4209C1.11143 15.0607 1.03369 14.6742 1.03369 14.2837C1.03369 13.8932 1.11143 13.5067 1.26237 13.1466C1.41332 12.7864 1.63445 12.46 1.91286 12.1862C2.19128 11.9124 2.52142 11.6968 2.88403 11.552C3.24663 11.4071 3.63445 11.3359 4.02487 11.3425C4.80505 11.3425 5.55327 11.6524 6.10494 12.2041C6.65661 12.7557 6.96653 13.5039 6.96653 14.2841C6.96653 15.0643 6.65661 15.8125 6.10494 16.3642C5.55327 16.9159 4.80505 17.225 4.02487 17.225ZM4.02487 12.5916C3.09153 12.5916 2.3332 13.35 2.3332 14.2833C2.3332 15.2166 3.09153 15.975 4.02487 15.975C4.9582 15.975 5.71653 15.2166 5.71653 14.2833C5.71653 13.35 4.9582 12.5916 4.02487 12.5916Z" fill="white"/>
<path d="M15.9749 17.2249C15.3931 17.2249 14.8243 17.0524 14.3406 16.7291C13.8568 16.4059 13.4798 15.9465 13.2571 15.4089C13.0345 14.8714 12.9762 14.28 13.0897 13.7093C13.2032 13.1387 13.4834 12.6145 13.8948 12.2031C14.3062 11.7917 14.8304 11.5116 15.401 11.3981C15.9716 11.2846 16.5631 11.3428 17.1006 11.5655C17.6381 11.7881 18.0975 12.1652 18.4208 12.6489C18.744 13.1327 18.9165 13.7014 18.9165 14.2832C18.9082 15.8999 17.5915 17.2249 15.9749 17.2249ZM15.9749 12.5916C15.0415 12.5916 14.2832 13.3499 14.2832 14.2832C14.2832 15.2166 15.0415 15.9749 15.9749 15.9749C16.9082 15.9749 17.6665 15.2166 17.6665 14.2832C17.6648 13.8351 17.486 13.4058 17.1691 13.089C16.8523 12.7721 16.423 12.5933 15.9749 12.5916Z" fill="white"/>
</svg>
